<svg xmlns="http://www.w3.org/2000/svg" viewBox="0 0 26 26">
  <style> 
    .wrench {
      fill: #3f3d56;
    }
    @media (prefers-color-scheme: dark) {
      .wrench {
        fill: #ffffff;
      }
    }
  </style>
  <path d="M14.76 18.4l4.82 4.82a2.66 2.66 0 103.76-3.77l-4.82-4.81zM10.5 8.5L7 5 6 2 2 0 0 2l2 4 3 1 3.5 3.5 2-2z" fill="#03c39d"/>
  <path d="M25.7 4.3L22 8l-3.2-.8L18 4 21.7.3a6.16 6.16 0 00-6.24 1.51 4.64 4.64 0 00-1 5.47L2.88 18.88a3 3 0 004.24 4.24l11.6-11.6a4.64 4.64 0 005.47-1A6.16 6.16 0 0025.7 4.3zM5 22a1 1 0 111-1 1 1 0 01-1 1z" class="wrench"/>
</svg>